<?xml version="1.0" encoding="UTF-8" standalone="no"?>
<!DOCTYPE svg PUBLIC "-//W3C//DTD SVG 1.1//EN"
 "http://www.w3.org/Graphics/SVG/1.1/DTD/svg11.dtd">
<!-- Generated by graphviz version 2.40.1 (20161225.0304)
 -->
<!-- Title: dependencies Pages: 1 -->
<svg width="1474pt" height="284pt"
 viewBox="0.00 0.00 1474.00 284.00" xmlns="http://www.w3.org/2000/svg" xmlns:xlink="http://www.w3.org/1999/xlink">
<g id="graph0" class="graph" transform="scale(1 1) rotate(0) translate(4 280)">
<title>dependencies</title>
<polygon fill="#ffffff" stroke="transparent" points="-4,4 -4,-280 1470,-280 1470,4 -4,4"/>
<text text-anchor="start" x="712.0091" y="-42.4" font-family="sans-serif" font-weight="bold" font-size="14.00" fill="#000000">Legend</text>
<polygon fill="#ffffb3" stroke="transparent" points="499,-10 499,-30 519,-30 519,-10 499,-10"/>
<text text-anchor="start" x="522.629" y="-15.4" font-family="sans-serif" font-size="14.00" fill="#000000"> &#160;Declarations</text>
<polygon fill="#8dd3c7" stroke="transparent" points="612,-10 612,-30 632,-30 632,-10 612,-10"/>
<text text-anchor="start" x="635.7251" y="-15.4" font-family="sans-serif" font-size="14.00" fill="#000000"> &#160;Module</text>
<polygon fill="#80b1d3" stroke="transparent" points="698,-10 698,-30 718,-30 718,-10 698,-10"/>
<text text-anchor="start" x="721.7812" y="-15.4" font-family="sans-serif" font-size="14.00" fill="#000000"> &#160;Bootstrap</text>
<polygon fill="#fdb462" stroke="transparent" points="795,-10 795,-30 815,-30 815,-10 795,-10"/>
<text text-anchor="start" x="818.6732" y="-15.4" font-family="sans-serif" font-size="14.00" fill="#000000"> &#160;Providers</text>
<polygon fill="#fb8072" stroke="transparent" points="891,-10 891,-30 911,-30 911,-10 891,-10"/>
<text text-anchor="start" x="914.7258" y="-15.4" font-family="sans-serif" font-size="14.00" fill="#000000"> &#160;Exports</text>
<g id="clust1" class="cluster">
<title>cluster_AppModule</title>
<polygon fill="none" stroke="#000000" stroke-dasharray="1,5" points="8,-70 8,-268 522,-268 522,-70 8,-70"/>
</g>
<g id="clust2" class="cluster">
<title>cluster_AppModule_declarations</title>
<polygon fill="none" stroke="#000000" points="168,-78 168,-130 514,-130 514,-78 168,-78"/>
</g>
<g id="clust6" class="cluster">
<title>cluster_AppModule_imports</title>
<polygon fill="none" stroke="#000000" points="16,-78 16,-130 160,-130 160,-78 16,-78"/>
</g>
<g id="clust8" class="cluster">
<title>cluster_AppModule_bootstrap</title>
<polygon fill="none" stroke="#000000" points="225,-208 225,-260 349,-260 349,-208 225,-208"/>
</g>
<g id="clust16" class="cluster">
<title>cluster_CombosPageModule</title>
<polygon fill="none" stroke="#000000" stroke-dasharray="1,5" points="530,-143 530,-195 680,-195 680,-143 530,-143"/>
</g>
<g id="clust23" class="cluster">
<title>cluster_HomePageModule</title>
<polygon fill="none" stroke="#000000" stroke-dasharray="1,5" points="854,-70 854,-195 990,-195 990,-70 854,-70"/>
</g>
<g id="clust24" class="cluster">
<title>cluster_HomePageModule_declarations</title>
<polygon fill="none" stroke="#000000" points="875,-78 875,-130 969,-130 969,-78 875,-78"/>
</g>
<g id="clust30" class="cluster">
<title>cluster_ListPageModule</title>
<polygon fill="none" stroke="#000000" stroke-dasharray="1,5" points="998,-70 998,-195 1122,-195 1122,-70 998,-70"/>
</g>
<g id="clust31" class="cluster">
<title>cluster_ListPageModule_declarations</title>
<polygon fill="none" stroke="#000000" points="1020,-78 1020,-130 1100,-130 1100,-78 1020,-78"/>
</g>
<g id="clust37" class="cluster">
<title>cluster_LoginPageModule</title>
<polygon fill="none" stroke="#000000" stroke-dasharray="1,5" points="1130,-70 1130,-195 1266,-195 1266,-70 1130,-70"/>
</g>
<g id="clust38" class="cluster">
<title>cluster_LoginPageModule_declarations</title>
<polygon fill="none" stroke="#000000" points="1152,-78 1152,-130 1244,-130 1244,-78 1152,-78"/>
</g>
<g id="clust44" class="cluster">
<title>cluster_MisPersonajesPageModule</title>
<polygon fill="none" stroke="#000000" stroke-dasharray="1,5" points="1274,-70 1274,-195 1458,-195 1458,-70 1274,-70"/>
</g>
<g id="clust45" class="cluster">
<title>cluster_MisPersonajesPageModule_declarations</title>
<polygon fill="none" stroke="#000000" points="1296,-78 1296,-130 1436,-130 1436,-78 1296,-78"/>
</g>
<g id="clust51" class="cluster">
<title>cluster_PersonajePageModule</title>
<polygon fill="none" stroke="#000000" stroke-dasharray="1,5" points="688,-143 688,-195 846,-195 846,-143 688,-143"/>
</g>
<!-- AppComponent -->
<g id="node1" class="node">
<title>AppComponent</title>
<polygon fill="#ffffb3" stroke="#000000" points="281.9399,-122 176.0601,-122 176.0601,-86 281.9399,-86 281.9399,-122"/>
<text text-anchor="middle" x="229" y="-99.8" font-family="Times,serif" font-size="14.00" fill="#000000">AppComponent</text>
</g>
<!-- AppModule -->
<g id="node4" class="node">
<title>AppModule</title>
<polygon fill="#8dd3c7" stroke="#000000" points="328.6571,-187 325.6571,-191 304.6571,-191 301.6571,-187 245.3429,-187 245.3429,-151 328.6571,-151 328.6571,-187"/>
<text text-anchor="middle" x="287" y="-164.8" font-family="Times,serif" font-size="14.00" fill="#000000">AppModule</text>
</g>
<!-- AppComponent&#45;&gt;AppModule -->
<g id="edge1" class="edge">
<title>AppComponent&#45;&gt;AppModule</title>
<path fill="none" stroke="#000000" d="M263.4457,-122.1061C263.4457,-122.1061 263.4457,-140.991 263.4457,-140.991"/>
<polygon fill="#000000" stroke="#000000" points="259.9457,-140.9909 263.4457,-150.991 266.9457,-140.991 259.9457,-140.9909"/>
</g>
<!-- CombosPage -->
<g id="node2" class="node">
<title>CombosPage</title>
<polygon fill="#ffffb3" stroke="#000000" points="389.8837,-122 300.1163,-122 300.1163,-86 389.8837,-86 389.8837,-122"/>
<text text-anchor="middle" x="345" y="-99.8" font-family="Times,serif" font-size="14.00" fill="#000000">CombosPage</text>
</g>
<!-- CombosPage&#45;&gt;AppModule -->
<g id="edge2" class="edge">
<title>CombosPage&#45;&gt;AppModule</title>
<path fill="none" stroke="#000000" d="M314.4432,-122.1061C314.4432,-122.1061 314.4432,-140.991 314.4432,-140.991"/>
<polygon fill="#000000" stroke="#000000" points="310.9433,-140.9909 314.4432,-150.991 317.9433,-140.991 310.9433,-140.9909"/>
</g>
<!-- CombosPageModule -->
<g id="node7" class="node">
<title>CombosPageModule</title>
<polygon fill="#8dd3c7" stroke="#000000" points="671.9341,-187 668.9341,-191 647.9341,-191 644.9341,-187 538.0659,-187 538.0659,-151 671.9341,-151 671.9341,-187"/>
<text text-anchor="middle" x="605" y="-164.8" font-family="Times,serif" font-size="14.00" fill="#000000">CombosPageModule</text>
</g>
<!-- CombosPage&#45;&gt;CombosPageModule -->
<g id="edge6" class="edge">
<title>CombosPage&#45;&gt;CombosPageModule</title>
<path fill="none" stroke="#000000" d="M365.7057,-122.0225C365.7057,-139.3734 365.7057,-163 365.7057,-163 365.7057,-163 528.025,-163 528.025,-163"/>
<polygon fill="#000000" stroke="#000000" points="528.025,-166.5001 538.025,-163 528.025,-159.5001 528.025,-166.5001"/>
</g>
<!-- PersonajePage -->
<g id="node3" class="node">
<title>PersonajePage</title>
<polygon fill="#ffffb3" stroke="#000000" points="505.6347,-122 408.3653,-122 408.3653,-86 505.6347,-86 505.6347,-122"/>
<text text-anchor="middle" x="457" y="-99.8" font-family="Times,serif" font-size="14.00" fill="#000000">PersonajePage</text>
</g>
<!-- PersonajePage&#45;&gt;AppModule -->
<g id="edge3" class="edge">
<title>PersonajePage&#45;&gt;AppModule</title>
<path fill="none" stroke="#000000" d="M457,-122.2843C457,-143.3211 457,-175 457,-175 457,-175 339.0225,-175 339.0225,-175"/>
<polygon fill="#000000" stroke="#000000" points="339.0225,-171.5001 329.0225,-175 339.0224,-178.5001 339.0225,-171.5001"/>
</g>
<!-- PersonajePageModule -->
<g id="node16" class="node">
<title>PersonajePageModule</title>
<polygon fill="#8dd3c7" stroke="#000000" points="837.6839,-187 834.6839,-191 813.6839,-191 810.6839,-187 696.3161,-187 696.3161,-151 837.6839,-151 837.6839,-187"/>
<text text-anchor="middle" x="767" y="-164.8" font-family="Times,serif" font-size="14.00" fill="#000000">PersonajePageModule</text>
</g>
<!-- PersonajePage&#45;&gt;PersonajePageModule -->
<g id="edge11" class="edge">
<title>PersonajePage&#45;&gt;PersonajePageModule</title>
<path fill="none" stroke="#000000" d="M505.7785,-104C593.0788,-104 767,-104 767,-104 767,-104 767,-140.8939 767,-140.8939"/>
<polygon fill="#000000" stroke="#000000" points="763.5001,-140.8938 767,-150.8939 770.5001,-140.8939 763.5001,-140.8938"/>
</g>
<!-- AppComponent  -->
<g id="node6" class="node">
<title>AppComponent </title>
<polygon fill="#80b1d3" stroke="#000000" points="341.439,-252 232.561,-252 232.561,-216 341.439,-216 341.439,-252"/>
<text text-anchor="middle" x="287" y="-229.8" font-family="Times,serif" font-size="14.00" fill="#000000">AppComponent </text>
</g>
<!-- AppModule&#45;&gt;AppComponent  -->
<g id="edge5" class="edge">
<title>AppModule&#45;&gt;AppComponent </title>
<path fill="none" stroke="#000000" stroke-dasharray="1,5" d="M287,-187.1061C287,-187.1061 287,-205.991 287,-205.991"/>
<polygon fill="#000000" stroke="#000000" points="283.5001,-205.9909 287,-215.991 290.5001,-205.991 283.5001,-205.9909"/>
</g>
<!-- AppRoutingModule -->
<g id="node5" class="node">
<title>AppRoutingModule</title>
<polygon fill="#8dd3c7" stroke="#000000" points="152.2744,-122 149.2744,-126 128.2744,-126 125.2744,-122 23.7256,-122 23.7256,-86 152.2744,-86 152.2744,-122"/>
<text text-anchor="middle" x="88" y="-99.8" font-family="Times,serif" font-size="14.00" fill="#000000">AppRoutingModule</text>
</g>
<!-- AppRoutingModule&#45;&gt;AppModule -->
<g id="edge4" class="edge">
<title>AppRoutingModule&#45;&gt;AppModule</title>
<path fill="none" stroke="#000000" d="M88,-122.1061C88,-141.3391 88,-169 88,-169 88,-169 235.2831,-169 235.2831,-169"/>
<polygon fill="#000000" stroke="#000000" points="235.2831,-172.5001 245.2831,-169 235.283,-165.5001 235.2831,-172.5001"/>
</g>
<!-- HomePage -->
<g id="node8" class="node">
<title>HomePage</title>
<polygon fill="#ffffb3" stroke="#000000" points="960.9248,-122 883.0752,-122 883.0752,-86 960.9248,-86 960.9248,-122"/>
<text text-anchor="middle" x="922" y="-99.8" font-family="Times,serif" font-size="14.00" fill="#000000">HomePage</text>
</g>
<!-- HomePageModule -->
<g id="node9" class="node">
<title>HomePageModule</title>
<polygon fill="#8dd3c7" stroke="#000000" points="982.4734,-187 979.4734,-191 958.4734,-191 955.4734,-187 861.5266,-187 861.5266,-151 982.4734,-151 982.4734,-187"/>
<text text-anchor="middle" x="922" y="-164.8" font-family="Times,serif" font-size="14.00" fill="#000000">HomePageModule</text>
</g>
<!-- HomePage&#45;&gt;HomePageModule -->
<g id="edge7" class="edge">
<title>HomePage&#45;&gt;HomePageModule</title>
<path fill="none" stroke="#000000" d="M922,-122.1061C922,-122.1061 922,-140.991 922,-140.991"/>
<polygon fill="#000000" stroke="#000000" points="918.5001,-140.9909 922,-150.991 925.5001,-140.991 918.5001,-140.9909"/>
</g>
<!-- ListPage -->
<g id="node10" class="node">
<title>ListPage</title>
<polygon fill="#ffffb3" stroke="#000000" points="1092.4902,-122 1027.5098,-122 1027.5098,-86 1092.4902,-86 1092.4902,-122"/>
<text text-anchor="middle" x="1060" y="-99.8" font-family="Times,serif" font-size="14.00" fill="#000000">ListPage</text>
</g>
<!-- ListPageModule -->
<g id="node11" class="node">
<title>ListPageModule</title>
<polygon fill="#8dd3c7" stroke="#000000" points="1114.041,-187 1111.041,-191 1090.041,-191 1087.041,-187 1005.959,-187 1005.959,-151 1114.041,-151 1114.041,-187"/>
<text text-anchor="middle" x="1060" y="-164.8" font-family="Times,serif" font-size="14.00" fill="#000000">ListPageModule</text>
</g>
<!-- ListPage&#45;&gt;ListPageModule -->
<g id="edge8" class="edge">
<title>ListPage&#45;&gt;ListPageModule</title>
<path fill="none" stroke="#000000" d="M1060,-122.1061C1060,-122.1061 1060,-140.991 1060,-140.991"/>
<polygon fill="#000000" stroke="#000000" points="1056.5001,-140.9909 1060,-150.991 1063.5001,-140.991 1056.5001,-140.9909"/>
</g>
<!-- LoginPage -->
<g id="node12" class="node">
<title>LoginPage</title>
<polygon fill="#ffffb3" stroke="#000000" points="1236.1558,-122 1159.8442,-122 1159.8442,-86 1236.1558,-86 1236.1558,-122"/>
<text text-anchor="middle" x="1198" y="-99.8" font-family="Times,serif" font-size="14.00" fill="#000000">LoginPage</text>
</g>
<!-- LoginPageModule -->
<g id="node13" class="node">
<title>LoginPageModule</title>
<polygon fill="#8dd3c7" stroke="#000000" points="1258.205,-187 1255.205,-191 1234.205,-191 1231.205,-187 1137.795,-187 1137.795,-151 1258.205,-151 1258.205,-187"/>
<text text-anchor="middle" x="1198" y="-164.8" font-family="Times,serif" font-size="14.00" fill="#000000">LoginPageModule</text>
</g>
<!-- LoginPage&#45;&gt;LoginPageModule -->
<g id="edge9" class="edge">
<title>LoginPage&#45;&gt;LoginPageModule</title>
<path fill="none" stroke="#000000" d="M1198,-122.1061C1198,-122.1061 1198,-140.991 1198,-140.991"/>
<polygon fill="#000000" stroke="#000000" points="1194.5001,-140.9909 1198,-150.991 1201.5001,-140.991 1194.5001,-140.9909"/>
</g>
<!-- MisPersonajesPage -->
<g id="node14" class="node">
<title>MisPersonajesPage</title>
<polygon fill="#ffffb3" stroke="#000000" points="1428.3585,-122 1303.6415,-122 1303.6415,-86 1428.3585,-86 1428.3585,-122"/>
<text text-anchor="middle" x="1366" y="-99.8" font-family="Times,serif" font-size="14.00" fill="#000000">MisPersonajesPage</text>
</g>
<!-- MisPersonajesPageModule -->
<g id="node15" class="node">
<title>MisPersonajesPageModule</title>
<polygon fill="#8dd3c7" stroke="#000000" points="1450.4087,-187 1447.4087,-191 1426.4087,-191 1423.4087,-187 1281.5913,-187 1281.5913,-151 1450.4087,-151 1450.4087,-187"/>
<text text-anchor="middle" x="1366" y="-164.8" font-family="Times,serif" font-size="14.00" fill="#000000">MisPersonajesPageModule</text>
</g>
<!-- MisPersonajesPage&#45;&gt;MisPersonajesPageModule -->
<g id="edge10" class="edge">
<title>MisPersonajesPage&#45;&gt;MisPersonajesPageModule</title>
<path fill="none" stroke="#000000" d="M1366,-122.1061C1366,-122.1061 1366,-140.991 1366,-140.991"/>
<polygon fill="#000000" stroke="#000000" points="1362.5001,-140.9909 1366,-150.991 1369.5001,-140.991 1362.5001,-140.9909"/>
</g>
</g>
</svg>
